<svg id="svg" xmlns="http://www.w3.org/2000/svg" xmlns:xlink="http://www.w3.org/1999/xlink" width="400" height="100" viewBox="0, 0, 400,100"><g id="svgg"><path id="path0" d="M78.471 0.617 C 81.716 1.490,98.808 9.762,100.488 11.273 C 103.484 13.968,102.503 16.809,96.680 22.307 C 88.139 30.371,82.162 35.729,80.606 36.716 L 78.926 37.781 92.056 46.527 C 113.108 60.549,113.109 59.400,92.028 79.498 C 71.079 99.470,72.292 99.383,56.595 82.042 C 46.725 71.139,46.067 70.332,45.278 68.164 L 44.852 66.992 44.052 68.673 C 43.248 70.365,26.127 86.390,21.947 89.364 C 18.254 91.992,15.480 91.933,12.823 89.172 C 10.985 87.261,2.426 72.532,2.101 70.723 C 1.666 68.293,1.197 68.002,1.184 70.153 C 1.165 73.320,1.944 75.166,6.857 83.596 C 13.023 94.177,14.393 95.501,19.141 95.466 C 23.506 95.434,24.816 94.499,39.773 80.733 C 43.494 77.309,46.674 74.662,46.841 74.851 C 49.708 78.114,65.782 95.742,66.460 96.368 C 70.440 100.038,78.001 99.761,82.508 95.779 C 92.340 87.090,109.968 69.576,110.882 67.587 C 113.390 62.129,111.654 57.147,105.897 53.286 L 103.329 51.563 107.231 51.563 L 111.133 51.564 112.207 53.264 L 113.281 54.965 113.281 64.800 L 113.281 74.635 110.617 78.626 C 109.152 80.821,107.823 82.837,107.665 83.105 C 107.436 83.492,110.104 83.594,120.485 83.594 L 133.594 83.594 133.619 82.324 L 133.644 81.055 134.246 82.261 L 134.848 83.468 150.105 83.726 C 158.497 83.868,168.841 83.984,173.092 83.984 L 180.822 83.984 180.938 81.543 L 181.055 79.102 182.024 81.543 L 182.994 83.984 192.181 83.982 L 201.367 83.981 202.713 80.730 L 204.058 77.478 205.283 79.267 C 206.189 80.588,207.204 81.412,209.171 82.422 L 211.833 83.789 221.135 83.923 C 227.094 84.008,231.178 83.897,232.498 83.614 C 233.911 83.311,234.602 83.300,234.695 83.578 C 234.925 84.267,255.078 84.127,255.078 83.437 C 255.078 82.967,255.337 82.967,256.898 83.437 C 258.304 83.860,261.723 83.984,271.937 83.984 L 285.156 83.984 285.156 82.434 L 285.156 80.883 286.570 81.842 C 289.289 83.688,289.867 83.743,307.910 83.887 C 323.443 84.010,325.000 83.965,325.000 83.391 C 325.000 82.913,325.214 82.828,325.879 83.042 C 326.362 83.197,327.373 83.468,328.125 83.645 C 330.003 84.086,345.923 84.051,347.852 83.602 C 348.837 83.372,349.462 83.376,349.544 83.611 C 349.687 84.020,392.578 84.155,392.578 83.746 C 392.578 83.615,391.040 81.549,389.160 79.156 L 385.742 74.805 385.534 67.969 C 385.244 58.432,383.446 54.937,377.997 53.319 C 375.125 52.466,349.609 52.449,349.609 53.300 C 349.609 53.774,349.403 53.790,348.340 53.398 C 346.867 52.855,329.849 52.735,326.855 53.247 C 325.042 53.556,325.000 53.541,325.000 52.563 L 325.000 51.563 334.863 51.535 C 340.288 51.520,350.835 51.531,358.301 51.561 C 366.753 51.594,371.875 51.472,371.875 51.239 C 371.875 51.005,372.428 50.992,373.340 51.204 C 374.146 51.391,380.366 51.548,387.164 51.553 L 399.522 51.563 399.809 42.759 C 400.286 28.153,399.937 25.959,396.688 23.107 C 393.585 20.382,394.925 20.508,368.931 20.508 L 345.480 20.508 343.090 21.692 L 340.700 22.877 338.611 21.692 L 336.523 20.508 321.289 20.215 C 312.910 20.054,301.341 19.824,295.579 19.703 L 285.103 19.484 282.688 17.046 C 281.031 15.373,279.769 14.461,278.666 14.140 C 276.991 13.652,242.578 13.428,242.578 13.905 C 242.578 14.033,243.512 15.571,244.654 17.323 L 246.730 20.508 223.253 20.508 L 199.776 20.508 197.432 21.680 L 195.088 22.852 192.954 21.680 L 190.820 20.508 175.586 20.215 C 167.207 20.053,155.578 19.823,149.744 19.703 L 139.137 19.485 138.091 17.977 C 136.950 16.329,134.926 14.843,132.852 14.129 C 131.944 13.817,127.511 13.672,118.849 13.672 L 106.174 13.672 104.481 11.789 C 101.472 8.442,82.809 -0.024,78.552 0.026 L 76.367 0.051 78.471 0.617 M74.746 3.627 C 73.816 4.153,59.359 16.476,56.777 18.945 C 53.127 22.434,53.508 22.974,64.588 30.015 C 77.101 37.967,75.823 38.149,88.281 26.644 C 102.908 13.136,102.908 14.503,88.282 7.625 C 78.369 2.963,76.762 2.488,74.746 3.627 M85.365 16.895 C 85.043 25.496,84.798 26.172,82.011 26.172 C 80.338 26.172,79.574 25.463,79.842 24.158 C 80.443 21.228,80.484 17.909,79.918 18.035 C 79.599 18.106,77.176 20.028,74.533 22.306 C 69.046 27.034,67.223 27.943,65.895 26.615 C 64.541 25.261,65.347 24.073,70.690 19.550 C 76.170 14.910,76.157 14.783,70.328 16.031 C 66.054 16.946,65.234 16.789,65.234 15.052 C 65.234 13.414,66.361 13.004,75.781 11.213 C 80.830 10.254,85.115 9.447,85.304 9.422 C 85.499 9.395,85.525 12.621,85.365 16.895 M38.086 10.494 C 40.257 11.242,50.526 17.905,51.772 19.373 L 52.567 20.311 53.250 19.155 L 53.932 18.000 48.548 14.392 C 42.455 10.310,41.303 9.796,38.281 9.810 L 36.133 9.820 38.086 10.494 M34.116 13.393 C 33.651 13.654,29.960 16.931,25.913 20.676 C 14.286 31.435,14.486 30.275,22.729 39.160 C 28.296 45.162,27.179 45.536,40.274 33.286 C 52.717 21.646,52.548 22.381,44.078 16.768 C 37.884 12.663,36.345 12.142,34.116 13.393 M129.174 17.214 C 132.936 18.639,133.398 20.113,133.398 30.664 C 133.398 44.619,133.563 44.485,116.309 44.514 L 106.250 44.531 106.247 32.129 C 106.245 20.410,106.202 19.662,105.469 18.555 C 105.042 17.910,104.691 17.251,104.690 17.090 C 104.686 16.619,127.914 16.736,129.174 17.214 M276.022 17.798 C 278.728 19.819,278.711 19.738,278.711 30.664 C 278.711 44.764,279.583 43.996,263.184 44.346 L 251.953 44.585 251.951 32.156 C 251.948 20.410,251.905 19.662,251.172 18.555 C 250.745 17.910,250.395 17.244,250.393 17.074 C 250.386 16.267,274.900 16.959,276.022 17.798 M41.797 20.656 C 41.797 21.871,40.513 22.605,37.125 23.327 C 33.056 24.193,33.029 24.317,36.330 26.953 C 39.416 29.418,39.815 30.601,38.033 32.003 C 36.339 33.336,35.294 33.049,32.362 30.443 C 29.230 27.659,29.190 27.668,28.325 31.344 C 27.460 35.020,25.548 36.953,24.283 35.429 C 23.954 35.033,26.508 23.393,27.149 22.366 C 27.182 22.313,30.183 21.589,33.819 20.755 C 40.619 19.197,41.797 19.182,41.797 20.656 M115.424 21.945 C 115.311 22.239,115.266 26.342,115.324 31.064 L 115.430 39.648 119.180 39.648 C 124.520 39.648,124.220 40.181,124.213 30.714 C 124.209 26.390,124.040 22.588,123.837 22.266 C 123.316 21.441,115.728 21.152,115.424 21.945 M261.028 30.566 L 261.133 39.648 264.883 39.648 C 270.226 39.648,269.922 40.192,269.922 30.638 C 269.922 21.041,270.182 21.484,264.554 21.484 L 260.923 21.484 261.028 30.566 M159.980 24.219 C 161.925 26.014,162.109 27.026,162.109 35.907 L 162.109 44.105 160.765 44.358 C 158.416 44.798,139.739 44.371,138.825 43.855 C 135.788 42.143,135.336 33.483,138.167 31.256 C 139.077 30.540,139.743 30.469,145.533 30.469 C 152.238 30.469,153.125 30.247,153.125 28.566 C 153.125 27.092,152.413 26.953,144.844 26.953 L 137.500 26.953 137.500 24.982 L 137.500 23.012 148.211 23.127 L 158.923 23.242 159.980 24.219 M305.118 23.934 C 307.640 25.618,307.832 26.505,307.718 35.938 L 307.617 44.336 296.415 44.336 C 282.327 44.336,282.108 44.227,282.053 37.194 C 282.006 31.118,282.886 30.471,291.200 30.463 C 297.842 30.456,298.174 30.390,298.612 28.985 C 299.196 27.116,298.553 26.953,290.577 26.953 L 283.203 26.953 283.203 25.000 L 283.203 23.047 293.497 23.047 C 303.549 23.047,303.822 23.068,305.118 23.934 M188.743 24.296 C 191.332 25.994,191.602 27.110,191.602 36.133 L 191.602 44.336 187.207 44.446 L 182.813 44.557 182.813 36.614 C 182.813 27.322,182.994 27.734,178.906 27.734 C 174.826 27.734,175.000 27.350,175.000 36.383 C 175.000 40.624,174.868 44.157,174.707 44.233 C 174.546 44.310,172.524 44.304,170.215 44.221 L 166.016 44.070 166.016 34.014 C 166.016 28.483,166.147 23.827,166.308 23.666 C 166.966 23.008,187.665 23.589,188.743 24.296 M218.945 25.586 L 218.945 27.539 211.997 27.734 C 203.673 27.968,204.265 27.467,204.394 34.169 C 204.517 40.544,204.068 40.221,212.813 40.229 L 219.181 40.234 219.063 42.285 L 218.945 44.336 209.180 44.332 C 195.300 44.326,195.313 44.335,195.313 34.103 C 195.313 23.565,195.444 23.471,209.961 23.571 L 218.945 23.633 218.945 25.586 M244.679 24.347 C 246.773 25.719,247.263 27.119,247.264 31.738 L 247.266 35.938 239.246 35.938 C 230.405 35.938,230.293 35.971,231.259 38.303 C 232.003 40.099,232.620 40.234,240.034 40.234 L 246.916 40.234 246.798 42.285 L 246.680 44.336 236.914 44.305 C 222.663 44.260,222.070 43.841,222.071 33.818 C 222.071 23.811,222.587 23.431,235.969 23.571 C 242.558 23.640,243.764 23.748,244.679 24.347 M334.337 24.414 C 336.975 25.965,337.305 27.288,337.305 36.328 L 337.305 44.336 332.910 44.402 L 328.516 44.469 328.516 36.857 C 328.516 27.459,328.632 27.734,324.674 27.734 C 320.520 27.734,320.703 27.338,320.703 36.361 L 320.703 44.050 316.699 44.225 C 314.497 44.321,312.476 44.322,312.207 44.228 C 311.662 44.037,311.469 24.208,312.007 23.670 C 312.747 22.930,332.958 23.604,334.337 24.414 M364.453 25.586 L 364.453 27.734 357.887 27.734 C 349.525 27.734,349.849 27.534,349.669 32.812 C 349.415 40.269,349.375 40.234,358.477 40.234 L 364.494 40.234 364.376 42.285 L 364.258 44.336 356.250 44.396 C 341.412 44.509,340.625 43.984,340.625 33.984 C 340.625 24.028,341.312 23.551,355.762 23.480 L 364.453 23.438 364.453 25.586 M390.509 24.450 C 392.436 25.863,392.967 27.479,392.968 31.934 L 392.969 35.938 384.715 35.938 L 376.460 35.938 376.695 37.402 C 377.118 40.045,377.701 40.234,385.395 40.234 L 392.188 40.234 392.188 42.188 L 392.188 44.141 382.122 44.141 L 372.056 44.141 370.603 43.153 C 368.247 41.552,367.817 40.328,367.650 34.750 C 367.432 27.439,368.616 24.520,372.093 23.802 C 375.538 23.090,389.316 23.575,390.509 24.450 M51.788 25.190 C 50.949 26.748,32.528 44.061,30.816 44.901 L 29.665 45.465 32.185 48.026 C 38.463 54.401,44.160 61.145,44.601 62.720 L 45.045 64.307 46.081 62.329 L 47.117 60.352 41.478 54.112 L 35.840 47.873 37.199 46.690 C 37.946 46.040,42.188 42.106,46.626 37.949 L 54.693 30.390 61.819 34.981 C 69.685 40.048,69.158 39.835,71.175 38.762 L 72.624 37.991 69.222 35.920 C 61.166 31.013,53.904 26.047,53.231 24.984 L 52.511 23.847 51.788 25.190 M102.734 37.704 L 102.734 51.189 94.193 45.472 L 85.652 39.756 94.051 31.987 C 98.670 27.715,102.514 24.219,102.592 24.219 C 102.670 24.219,102.734 30.287,102.734 37.704 M231.106 28.613 C 230.976 29.097,230.868 30.063,230.865 30.762 L 230.859 32.031 234.766 32.031 L 238.672 32.031 238.672 30.501 C 238.672 27.795,238.586 27.734,234.769 27.734 C 231.544 27.734,231.327 27.786,231.106 28.613 M376.800 28.352 C 376.669 28.692,376.563 29.659,376.563 30.501 L 376.563 32.031 380.469 32.031 C 384.821 32.031,384.757 32.085,384.131 28.955 L 383.887 27.734 380.462 27.734 C 377.699 27.734,376.991 27.854,376.800 28.352 M13.678 33.209 C 13.670 35.977,14.185 36.871,18.706 41.944 L 22.374 46.058 23.514 45.468 L 24.654 44.879 21.409 41.336 C 16.415 35.884,14.454 33.488,14.447 32.829 C 14.444 32.498,14.271 31.963,14.063 31.641 C 13.793 31.223,13.682 31.674,13.678 33.209 M145.693 35.377 C 144.374 38.848,145.380 40.234,149.219 40.234 C 152.860 40.234,153.125 39.984,153.125 36.549 L 153.125 34.375 149.600 34.375 C 146.175 34.375,146.064 34.404,145.693 35.377 M291.420 35.131 C 291.198 35.546,291.016 36.524,291.016 37.305 C 291.016 39.923,291.431 40.234,294.922 40.234 C 298.563 40.234,298.828 39.984,298.828 36.549 L 298.828 34.375 295.326 34.375 C 292.264 34.375,291.774 34.470,291.420 35.131 M218.750 35.742 C 218.750 36.715,218.737 36.719,215.039 36.719 C 211.341 36.719,211.328 36.715,211.328 35.742 C 211.328 34.769,211.341 34.766,215.039 34.766 C 218.737 34.766,218.750 34.769,218.750 35.742 M364.453 35.742 C 364.453 36.715,364.440 36.719,360.742 36.719 C 357.044 36.719,357.031 36.715,357.031 35.742 C 357.031 34.769,357.044 34.766,360.742 34.766 C 364.440 34.766,364.453 34.769,364.453 35.742 M73.291 40.397 C 72.458 40.705,71.228 41.468,70.557 42.092 C 69.885 42.716,65.293 46.968,60.352 51.541 C 43.676 66.975,43.893 64.434,57.926 79.921 C 72.858 96.402,70.669 96.548,90.336 77.760 C 109.863 59.106,109.824 61.238,90.858 48.595 C 77.095 39.421,76.578 39.180,73.291 40.397 M23.978 48.130 C 22.713 49.102,6.956 63.810,5.521 65.360 C 3.174 67.894,3.737 69.732,10.237 80.759 C 16.082 90.673,16.860 90.809,25.228 83.368 C 46.182 64.738,45.557 66.457,35.454 55.248 C 27.710 46.655,26.710 46.035,23.978 48.130 M143.210 49.892 C 145.086 51.230,145.508 52.708,145.508 57.942 L 145.508 62.564 144.232 63.704 C 143.530 64.331,142.696 64.844,142.377 64.844 C 141.570 64.844,141.497 64.647,144.531 70.703 C 146.035 73.705,147.266 76.252,147.266 76.362 C 147.266 76.472,144.840 76.563,141.876 76.563 L 136.486 76.563 134.023 70.703 L 131.560 64.844 129.061 64.844 L 126.563 64.844 126.563 70.703 L 126.563 76.563 120.867 76.563 L 115.171 76.563 115.984 75.247 C 117.204 73.273,117.231 51.944,116.016 50.391 C 115.595 49.854,115.248 49.272,115.243 49.098 C 115.219 48.233,141.948 48.992,143.210 49.892 M247.656 63.086 L 247.656 76.953 242.969 76.953 L 238.281 76.953 238.281 63.086 L 238.281 49.219 242.969 49.219 L 247.656 49.219 247.656 63.086 M282.031 50.977 L 282.031 52.734 268.555 52.734 C 257.070 52.734,255.078 52.651,255.078 52.170 C 255.078 51.695,256.836 51.588,266.309 51.487 L 277.539 51.367 279.492 50.348 C 282.099 48.989,282.031 48.972,282.031 50.977 M294.531 52.539 L 294.531 55.859 299.023 55.859 L 303.516 55.859 303.516 58.008 L 303.516 60.156 299.023 60.156 L 294.531 60.156 294.537 65.137 C 294.545 72.110,294.497 72.042,299.522 72.182 L 303.516 72.293 303.516 74.676 L 303.516 77.058 296.582 76.874 C 285.889 76.590,285.792 76.502,285.620 66.973 L 285.497 60.197 283.666 60.079 L 281.836 59.961 281.836 58.008 L 281.836 56.055 283.691 55.936 L 285.547 55.817 285.547 52.518 L 285.547 49.219 290.039 49.219 L 294.531 49.219 294.531 52.539 M317.578 51.758 L 317.578 54.297 313.086 54.297 L 308.594 54.297 308.594 51.758 L 308.594 49.219 313.086 49.219 L 317.578 49.219 317.578 51.758 M85.044 51.083 C 85.850 51.713,86.705 63.246,86.717 73.664 L 86.719 74.868 74.204 75.379 L 61.690 75.891 60.728 74.987 C 57.575 72.025,60.084 69.844,67.053 69.487 C 74.594 69.101,74.575 69.226,68.012 63.223 C 61.807 57.546,60.914 55.876,63.087 54.004 C 65.543 51.886,66.958 52.478,74.787 58.903 C 80.136 63.292,80.078 63.311,80.078 57.112 C 80.078 50.777,81.869 48.603,85.044 51.083 M231.152 51.470 L 234.766 51.656 234.766 52.715 L 234.766 53.774 232.324 53.262 C 230.543 52.889,225.519 52.748,213.756 52.743 L 197.628 52.734 196.859 54.590 C 196.436 55.610,195.860 56.955,195.580 57.578 L 195.070 58.711 193.922 55.703 L 192.773 52.695 173.242 52.816 C 162.500 52.883,153.426 53.078,153.079 53.249 C 152.525 53.521,151.654 52.122,152.100 51.676 C 152.163 51.613,168.856 51.556,189.194 51.550 C 215.367 51.543,226.172 51.417,226.172 51.119 C 226.172 50.866,226.446 50.815,226.855 50.991 C 227.231 51.153,229.165 51.368,231.152 51.470 M305.078 52.148 C 305.078 52.572,304.644 52.734,303.516 52.734 C 302.387 52.734,301.953 52.572,301.953 52.148 C 301.953 51.725,302.387 51.563,303.516 51.563 C 304.644 51.563,305.078 51.725,305.078 52.148 M126.432 53.385 C 126.289 53.529,126.172 55.111,126.172 56.901 L 126.172 60.156 130.812 60.156 C 136.327 60.156,136.417 60.097,136.250 56.587 C 136.146 54.406,136.020 54.064,135.156 53.629 C 134.136 53.115,126.905 52.913,126.432 53.385 M277.252 56.107 L 278.138 56.344 278.034 66.551 L 277.930 76.758 267.118 76.758 C 252.211 76.758,252.611 77.096,252.413 64.355 L 252.287 56.250 256.808 56.250 L 261.328 56.250 261.328 63.984 C 261.328 73.044,261.154 72.656,265.234 72.656 C 269.313 72.656,269.141 73.036,269.141 64.049 C 269.141 59.831,269.258 56.263,269.401 56.120 C 269.726 55.795,276.050 55.785,277.252 56.107 M317.578 66.406 L 317.578 76.953 313.086 76.953 L 308.594 76.953 308.594 66.406 L 308.594 55.859 313.086 55.859 L 317.578 55.859 317.578 66.406 M375.656 56.877 C 378.055 58.666,378.308 59.642,378.448 67.653 C 378.548 73.372,378.696 75.054,379.132 75.416 C 380.643 76.670,379.811 76.953,374.609 76.953 L 369.531 76.953 369.531 69.023 C 369.531 59.738,369.717 60.156,365.595 60.156 C 361.592 60.156,361.755 59.794,361.630 68.975 L 361.523 76.758 357.227 76.758 L 352.930 76.758 352.825 66.804 C 352.768 61.329,352.812 56.612,352.923 56.322 C 353.307 55.320,374.254 55.831,375.656 56.877 M172.065 57.097 C 173.735 58.410,174.219 60.061,174.219 64.441 L 174.219 68.359 166.199 68.359 C 157.358 68.359,157.246 68.393,158.212 70.725 C 158.956 72.520,159.573 72.656,166.987 72.656 L 173.869 72.656 173.751 74.707 L 173.633 76.758 163.672 76.758 C 149.566 76.758,149.017 76.363,149.033 66.239 C 149.048 56.391,149.225 56.254,161.959 56.251 C 170.631 56.250,171.031 56.284,172.065 57.097 M190.039 63.281 C 191.510 67.148,192.835 70.313,192.983 70.313 C 193.131 70.313,194.551 67.151,196.138 63.288 L 199.023 56.263 201.660 56.256 C 203.110 56.253,204.290 56.382,204.281 56.543 C 204.272 56.704,202.381 61.318,200.080 66.797 L 195.895 76.758 190.258 76.758 L 184.622 76.758 180.472 67.188 C 178.190 61.924,176.206 57.310,176.064 56.934 C 175.825 56.302,176.243 56.250,181.585 56.250 L 187.364 56.250 190.039 63.281 M230.896 56.855 C 233.274 58.084,233.591 59.223,233.592 66.541 C 233.595 76.892,233.768 76.758,220.313 76.758 C 206.887 76.758,206.665 76.591,206.649 66.529 C 206.639 59.804,207.340 57.707,209.961 56.623 C 211.508 55.983,229.598 56.184,230.896 56.855 M346.070 56.964 C 348.568 58.304,348.873 59.460,348.745 67.121 L 348.633 73.890 347.215 75.189 C 344.938 77.274,327.875 77.845,324.586 75.945 C 320.746 73.727,320.495 60.420,324.235 57.273 L 325.451 56.250 335.095 56.250 C 343.689 56.250,344.884 56.328,346.070 56.964 M19.575 57.557 C 19.898 58.267,19.800 59.186,19.141 61.628 C 17.808 66.571,17.983 66.568,23.392 61.554 C 28.703 56.631,30.097 55.901,31.317 57.407 C 32.468 58.829,31.428 60.459,26.083 65.609 C 20.558 70.934,20.577 70.803,25.417 70.332 C 30.604 69.827,32.950 71.704,30.274 74.218 C 29.361 75.076,12.148 76.341,11.411 75.604 C 10.986 75.179,15.769 57.943,16.484 57.324 C 17.623 56.339,19.070 56.448,19.575 57.557 M158.057 61.377 C 157.431 64.507,157.367 64.453,161.719 64.453 L 165.625 64.453 165.625 62.923 C 165.625 60.217,165.539 60.156,161.726 60.156 L 158.301 60.156 158.057 61.377 M217.014 61.024 C 216.295 62.051,216.134 70.637,216.811 71.901 C 217.360 72.926,223.205 73.045,223.591 72.038 C 224.050 70.842,223.853 61.118,223.359 60.625 C 222.462 59.727,217.714 60.026,217.014 61.024 M332.254 60.770 C 331.469 61.555,331.344 71.422,332.109 72.187 C 332.386 72.464,333.715 72.656,335.352 72.656 C 339.085 72.656,339.063 72.694,339.063 66.551 C 339.063 60.298,338.980 60.156,335.352 60.156 C 333.615 60.156,332.684 60.341,332.254 60.770 M305.078 68.164 C 305.078 69.170,304.054 69.472,302.571 68.904 C 301.207 68.380,301.864 67.188,303.516 67.188 C 304.922 67.188,305.078 67.285,305.078 68.164 " stroke="none" fill="#000000" fill-rule="evenodd"></path></g></svg>